# xmcd
#
# Track frame offsets: 
#        150
#        13933
#        23691
#        34366
#        45188
#        57925
#        66673
#        77968
#        89781
#        99621
#        110734
#        120415
#        133601
#        143907
#        157302
#        167577
#        180208
#        191192
#        199211
#        210163
#        223060
#        231801
#
# Disc length: 3238 seconds
#
# Revision: 0
# Processed by: cddbd v1.5.2PL0 Copyright (c) Steve Scherf et al.
# Submitted via: ExactAudioCopyFreeDBPlugin 1.0
#
DISCID=440ca416
DTITLE=Various Artist - Porky Chedwick Classics #49
DYEAR=1900
DGENRE=Oldies
TTITLE0=Joe Weaver - Baby I Love You So
TTITLE1=Creators - Crazy Love
TTITLE2=Wrens - Come Back My Love
TTITLE3=Del Rios - Just Across The Street
TTITLE4=Mohawks - Bewitched Brothered And Bewildered
TTITLE5=Baby Capri - You And I
TTITLE6=Jimmy Liggins - Drunk
TTITLE7=Bangers - Baby Let Me Bang Your Box
TTITLE8=Premiers - Run Along Baby
TTITLE9=Eltones - Like Matti
TTITLE10=Bobby Summers - Parade Rock
TTITLE11=Quintones - Im Willing
TTITLE12=Ladders - Hey Pretty Baby
TTITLE13=Federals - Good Wishes To You
TTITLE14=Velours - This Could Be The Night
TTITLE15=Royals - Rock Granny Roll
TTITLE16=Frank Olvera - Huggies Bunnies
TTITLE17=Rocking Ravens - Return Of The Red Headed Flea
TTITLE18=Fabulous Uptowns - New Love I Have Found
TTITLE19=Heartbeats - One Million Years
TTITLE20=Hal Paige - Thunderbird
TTITLE21=Taso Kain - Castros Beat
EXTD=
EXTT0=
EXTT1=
EXTT2=
EXTT3=
EXTT4=
EXTT5=
EXTT6=
EXTT7=
EXTT8=
EXTT9=
EXTT10=
EXTT11=
EXTT12=
EXTT13=
EXTT14=
EXTT15=
EXTT16=
EXTT17=
EXTT18=
EXTT19=
EXTT20=
EXTT21=
PLAYORDER=
